<?xml version="1.0" standalone="no"?>
<!DOCTYPE svg PUBLIC "-//W3C//DTD SVG 20010904//EN"
 "http://www.w3.org/TR/2001/REC-SVG-20010904/DTD/svg10.dtd">
<svg version="1.0" xmlns="http://www.w3.org/2000/svg"
 width="91.000000pt" height="86.000000pt" viewBox="0 0 91.000000 86.000000"
 preserveAspectRatio="xMidYMid meet">
<metadata>
Created by potrace 1.16, written by Peter Selinger 2001-2019
</metadata>
<g transform="translate(0.000000,86.000000) scale(0.100000,-0.100000)"
fill="#8B0000" stroke="none">
<path d="M224 769 c-17 -5 -38 -17 -48 -28 -17 -19 -16 -19 51 -27 96 -10 380
1 398 16 20 17 38 2 31 -25 -10 -40 16 -55 95 -55 l70 0 -57 65 -58 65 -225
-1 c-124 0 -240 -5 -257 -10z"/>
<path d="M133 680 c-51 -21 -21 -30 95 -30 165 0 272 -10 272 -25 0 -21 -36
-25 -217 -25 -166 0 -223 -8 -223 -30 0 -10 282 -9 350 1 23 4 25 1 22 -28 -5
-48 19 -53 244 -53 l194 0 0 23 c0 53 -16 59 -161 62 -125 4 -135 5 -152 26
-18 22 -18 33 -2 72 7 16 -6 17 -196 16 -112 0 -214 -4 -226 -9z"/>
<path d="M51 501 c-29 -18 2 -28 99 -33 55 -3 103 -8 107 -12 4 -3 -6 -19 -20
-34 -58 -60 -32 -74 178 -92 157 -13 291 -34 364 -56 52 -15 56 -15 68 2 15
20 26 74 21 101 -3 17 -20 19 -208 25 -254 8 -304 18 -327 61 -8 18 -21 35
-27 39 -16 11 -238 10 -255 -1z"/>
<path d="M60 324 c0 -43 58 -139 119 -197 73 -70 144 -98 268 -105 106 -5 123
2 123 55 0 85 -56 123 -225 153 -134 24 -184 43 -237 89 -43 38 -48 38 -48 5z"/>
</g>
</svg>
